<?xml version="1.0" encoding="UTF-8" standalone="no"?>
<!DOCTYPE svg PUBLIC "-//W3C//DTD SVG 1.1//EN"
 "http://www.w3.org/Graphics/SVG/1.1/DTD/svg11.dtd">
<!-- Generated by graphviz version 2.47.0 (20210316.0004)
 -->
<!-- Title: models_diagram Pages: 1 -->
<svg width="1838pt" height="235pt"
 viewBox="0.00 0.00 1838.34 235.00" xmlns="http://www.w3.org/2000/svg" xmlns:xlink="http://www.w3.org/1999/xlink">
<g id="graph0" class="graph" transform="scale(1 1) rotate(0) translate(4 231)">
<title>models_diagram</title>
<polygon fill="transparent" stroke="transparent" points="-4,4 -4,-231 1834.34,-231 1834.34,4 -4,4"/>
<!-- _diagram_info -->
<g id="node1" class="node">
<title>_diagram_info</title>
<text text-anchor="start" x="8" y="-138.1" font-family="Times,serif" font-size="13.00">Models diagram</text>
<text text-anchor="start" x="8" y="-124.1" font-family="Times,serif" font-size="13.00">Date: Jun 01 2021 &#45; 21:32</text>
<text text-anchor="start" x="8" y="-110.1" font-family="Times,serif" font-size="13.00">Migration version: 20210602023201</text>
<text text-anchor="start" x="8" y="-96.1" font-family="Times,serif" font-size="13.00">Generated by RailRoady 1.5.3</text>
<text text-anchor="start" x="8" y="-82.1" font-family="Times,serif" font-size="13.00">http://railroady.prestonlee.com</text>
</g>
<!-- Payment -->
<g id="node2" class="node">
<title>Payment</title>
<path fill="none" stroke="black" d="M244,-45.5C244,-45.5 480,-45.5 480,-45.5 486,-45.5 492,-51.5 492,-57.5 492,-57.5 492,-169.5 492,-169.5 492,-175.5 486,-181.5 480,-181.5 480,-181.5 244,-181.5 244,-181.5 238,-181.5 232,-175.5 232,-169.5 232,-169.5 232,-57.5 232,-57.5 232,-51.5 238,-45.5 244,-45.5"/>
<text text-anchor="middle" x="362" y="-166.3" font-family="Times,serif" font-size="14.00">Payment</text>
<polyline fill="none" stroke="black" points="232,-158.5 492,-158.5 "/>
<text text-anchor="start" x="240" y="-143.3" font-family="Times,serif" font-size="14.00">id :bigint</text>
<text text-anchor="start" x="240" y="-128.3" font-family="Times,serif" font-size="14.00">trip_id :bigint</text>
<text text-anchor="start" x="240" y="-113.3" font-family="Times,serif" font-size="14.00">id_wompi :character varying</text>
<text text-anchor="start" x="240" y="-98.3" font-family="Times,serif" font-size="14.00">amount :integer</text>
<text text-anchor="start" x="240" y="-83.3" font-family="Times,serif" font-size="14.00">status :character varying</text>
<text text-anchor="start" x="240" y="-68.3" font-family="Times,serif" font-size="14.00">created_at :timestamp(6) without time zone</text>
<text text-anchor="start" x="240" y="-53.3" font-family="Times,serif" font-size="14.00">updated_at :timestamp(6) without time zone</text>
</g>
<!-- Driver -->
<g id="node3" class="node">
<title>Driver</title>
<path fill="none" stroke="black" d="M522,-60.5C522,-60.5 758,-60.5 758,-60.5 764,-60.5 770,-66.5 770,-72.5 770,-72.5 770,-154.5 770,-154.5 770,-160.5 764,-166.5 758,-166.5 758,-166.5 522,-166.5 522,-166.5 516,-166.5 510,-160.5 510,-154.5 510,-154.5 510,-72.5 510,-72.5 510,-66.5 516,-60.5 522,-60.5"/>
<text text-anchor="middle" x="640" y="-151.3" font-family="Times,serif" font-size="14.00">Driver</text>
<polyline fill="none" stroke="black" points="510,-143.5 770,-143.5 "/>
<text text-anchor="start" x="518" y="-128.3" font-family="Times,serif" font-size="14.00">id :bigint</text>
<text text-anchor="start" x="518" y="-113.3" font-family="Times,serif" font-size="14.00">name :character varying</text>
<text text-anchor="start" x="518" y="-98.3" font-family="Times,serif" font-size="14.00">plate_vehicle :character varying</text>
<text text-anchor="start" x="518" y="-83.3" font-family="Times,serif" font-size="14.00">created_at :timestamp(6) without time zone</text>
<text text-anchor="start" x="518" y="-68.3" font-family="Times,serif" font-size="14.00">updated_at :timestamp(6) without time zone</text>
</g>
<!-- Rider -->
<g id="node4" class="node">
<title>Rider</title>
<path fill="none" stroke="black" d="M800,-53C800,-53 1036,-53 1036,-53 1042,-53 1048,-59 1048,-65 1048,-65 1048,-162 1048,-162 1048,-168 1042,-174 1036,-174 1036,-174 800,-174 800,-174 794,-174 788,-168 788,-162 788,-162 788,-65 788,-65 788,-59 794,-53 800,-53"/>
<text text-anchor="middle" x="918" y="-158.8" font-family="Times,serif" font-size="14.00">Rider</text>
<polyline fill="none" stroke="black" points="788,-151 1048,-151 "/>
<text text-anchor="start" x="796" y="-135.8" font-family="Times,serif" font-size="14.00">id :bigint</text>
<text text-anchor="start" x="796" y="-120.8" font-family="Times,serif" font-size="14.00">name :character varying</text>
<text text-anchor="start" x="796" y="-105.8" font-family="Times,serif" font-size="14.00">email :character varying</text>
<text text-anchor="start" x="796" y="-90.8" font-family="Times,serif" font-size="14.00">phone_number :character varying</text>
<text text-anchor="start" x="796" y="-75.8" font-family="Times,serif" font-size="14.00">created_at :timestamp(6) without time zone</text>
<text text-anchor="start" x="796" y="-60.8" font-family="Times,serif" font-size="14.00">updated_at :timestamp(6) without time zone</text>
</g>
<!-- Trip -->
<g id="node5" class="node">
<title>Trip</title>
<path fill="none" stroke="black" d="M1078,-0.5C1078,-0.5 1314,-0.5 1314,-0.5 1320,-0.5 1326,-6.5 1326,-12.5 1326,-12.5 1326,-214.5 1326,-214.5 1326,-220.5 1320,-226.5 1314,-226.5 1314,-226.5 1078,-226.5 1078,-226.5 1072,-226.5 1066,-220.5 1066,-214.5 1066,-214.5 1066,-12.5 1066,-12.5 1066,-6.5 1072,-0.5 1078,-0.5"/>
<text text-anchor="middle" x="1196" y="-211.3" font-family="Times,serif" font-size="14.00">Trip</text>
<polyline fill="none" stroke="black" points="1066,-203.5 1326,-203.5 "/>
<text text-anchor="start" x="1074" y="-188.3" font-family="Times,serif" font-size="14.00">updated_at :timestamp(6) without time zone</text>
<text text-anchor="start" x="1074" y="-173.3" font-family="Times,serif" font-size="14.00">rider_id :bigint</text>
<text text-anchor="start" x="1074" y="-158.3" font-family="Times,serif" font-size="14.00">driver_id :bigint</text>
<text text-anchor="start" x="1074" y="-143.3" font-family="Times,serif" font-size="14.00">lat_ini :character varying</text>
<text text-anchor="start" x="1074" y="-128.3" font-family="Times,serif" font-size="14.00">lng_ini :character varying</text>
<text text-anchor="start" x="1074" y="-113.3" font-family="Times,serif" font-size="14.00">lat_end :character varying</text>
<text text-anchor="start" x="1074" y="-98.3" font-family="Times,serif" font-size="14.00">lng_end :character varying</text>
<text text-anchor="start" x="1074" y="-83.3" font-family="Times,serif" font-size="14.00">distance_km :integer</text>
<text text-anchor="start" x="1074" y="-68.3" font-family="Times,serif" font-size="14.00">minutes :integer</text>
<text text-anchor="start" x="1074" y="-53.3" font-family="Times,serif" font-size="14.00">base_fee :integer</text>
<text text-anchor="start" x="1074" y="-38.3" font-family="Times,serif" font-size="14.00">total_fee :integer</text>
<text text-anchor="start" x="1074" y="-23.3" font-family="Times,serif" font-size="14.00">created_at :timestamp(6) without time zone</text>
<text text-anchor="start" x="1074" y="-8.3" font-family="Times,serif" font-size="14.00">id :bigint</text>
</g>
<!-- AdminUser -->
<g id="node6" class="node">
<title>AdminUser</title>
<path fill="none" stroke="black" d="M1356.5,-38C1356.5,-38 1645.5,-38 1645.5,-38 1651.5,-38 1657.5,-44 1657.5,-50 1657.5,-50 1657.5,-177 1657.5,-177 1657.5,-183 1651.5,-189 1645.5,-189 1645.5,-189 1356.5,-189 1356.5,-189 1350.5,-189 1344.5,-183 1344.5,-177 1344.5,-177 1344.5,-50 1344.5,-50 1344.5,-44 1350.5,-38 1356.5,-38"/>
<text text-anchor="middle" x="1501" y="-173.8" font-family="Times,serif" font-size="14.00">AdminUser</text>
<polyline fill="none" stroke="black" points="1344.5,-166 1657.5,-166 "/>
<text text-anchor="start" x="1352.5" y="-150.8" font-family="Times,serif" font-size="14.00">updated_at :timestamp(6) without time zone</text>
<text text-anchor="start" x="1352.5" y="-135.8" font-family="Times,serif" font-size="14.00">email :character varying</text>
<text text-anchor="start" x="1352.5" y="-120.8" font-family="Times,serif" font-size="14.00">encrypted_password :character varying</text>
<text text-anchor="start" x="1352.5" y="-105.8" font-family="Times,serif" font-size="14.00">reset_password_token :character varying</text>
<text text-anchor="start" x="1352.5" y="-90.8" font-family="Times,serif" font-size="14.00">reset_password_sent_at :timestamp without time zone</text>
<text text-anchor="start" x="1352.5" y="-75.8" font-family="Times,serif" font-size="14.00">remember_created_at :timestamp without time zone</text>
<text text-anchor="start" x="1352.5" y="-60.8" font-family="Times,serif" font-size="14.00">created_at :timestamp(6) without time zone</text>
<text text-anchor="start" x="1352.5" y="-45.8" font-family="Times,serif" font-size="14.00">id :bigint</text>
</g>
<!-- ApplicationRecord -->
<g id="node7" class="node">
<title>ApplicationRecord</title>
<ellipse fill="none" stroke="black" cx="1753" cy="-113.5" rx="77.19" ry="18"/>
<text text-anchor="middle" x="1753" y="-109.8" font-family="Times,serif" font-size="14.00">ApplicationRecord</text>
</g>
</g>
</svg>
